<svg data-v-fde0c5aa="" xmlns="http://www.w3.org/2000/svg" viewBox="0 0 300 300" class="font"><!----><defs data-v-fde0c5aa=""><!----></defs><rect data-v-fde0c5aa="" fill="transparent" x="0" y="0" width="300px" height="300px" class="logo-background-square"></rect><defs data-v-fde0c5aa=""><linearGradient data-v-fde0c5aa="" gradientTransform="rotate(25)" id="5166c419-ac30-450a-9cf8-3897eba36af3" x1="0%" y1="0%" x2="100%" y2="0%"><stop data-v-fde0c5aa="" offset="0%" stop-color="#B4373D" stop-opacity="1"></stop><stop data-v-fde0c5aa="" offset="100%" stop-color="#B23ACB" stop-opacity="1"></stop></linearGradient></defs><g data-v-fde0c5aa="" id="2d0cd9e8-9d8f-44b5-83ab-dd6993f28a41" fill="url(#5166c419-ac30-450a-9cf8-3897eba36af3)" transform="matrix(6.167648199980408,0,0,6.167648199980408,38.088029043301255,60.168203614369695)"><path d="M4.25 10.47L4.25 10.47L4.25 10.47Q3.41 10.47 2.94 10.68L2.94 10.68L2.94 10.68Q2.08 11.08 2.08 11.73L2.08 11.73L2.08 11.73Q2.08 12.08 2.28 12.28L2.28 12.28L2.28 12.28Q2.80 12.84 3.66 13.22L3.66 13.22L3.66 13.22Q4.17 13.45 5.14 13.80L5.14 13.80L5.14 13.80Q6.12 14.16 6.46 14.31L6.46 14.31L6.46 14.31Q6.80 14.47 7.22 14.74L7.22 14.74L7.22 14.74Q7.64 15.00 7.92 15.29L7.92 15.29L7.92 15.29Q8.57 15.98 8.57 16.87L8.57 16.87L8.57 16.87Q8.57 17.51 8.23 18.02L8.23 18.02L8.23 18.02Q7.88 18.53 7.31 18.84L7.31 18.84L7.31 18.84Q6.13 19.48 4.61 19.48L4.61 19.48L4.61 19.48Q2.58 19.48 1.29 18.77L1.29 18.77L1.29 18.77Q0.85 18.53 0.58 18.16L0.58 18.16L0.58 18.16Q0.31 17.78 0.31 17.35L0.31 17.35L0.31 17.35Q0.31 16.93 0.57 16.68L0.57 16.68L0.57 16.68Q0.83 16.43 1.31 16.43L1.31 16.43L1.31 16.43Q1.79 16.43 2.06 16.77L2.06 16.77L2.06 16.77Q2.33 17.10 2.33 17.64L2.33 17.64L2.33 17.64Q2.33 17.86 2.29 18.10L2.29 18.10L2.29 18.10Q3.33 18.63 4.51 18.63L4.51 18.63L4.51 18.63Q5.56 18.63 6.30 18.32L6.30 18.32L6.30 18.32Q7.14 17.96 7.14 17.06L7.14 17.06L7.14 17.06Q7.14 16.13 5.26 15.41L5.26 15.41L5.26 15.41Q4.95 15.29 4.29 15.07L4.29 15.07L4.29 15.07Q2.95 14.60 2.28 14.25L2.28 14.25L2.28 14.25Q0.62 13.37 0.62 12.05L0.62 12.05L0.62 12.05Q0.62 11.43 0.95 10.94L0.95 10.94L0.95 10.94Q1.29 10.46 1.85 10.18L1.85 10.18L1.85 10.18Q2.98 9.62 4.50 9.62L4.50 9.62L4.50 9.62Q6.28 9.62 7.38 10.21L7.38 10.21L7.38 10.21Q7.77 10.42 8.01 10.76L8.01 10.76L8.01 10.76Q8.25 11.10 8.25 11.53L8.25 11.53L8.25 11.53Q8.25 11.96 7.95 12.23L7.95 12.23L7.95 12.23Q7.66 12.51 7.22 12.51L7.22 12.51L7.22 12.51Q6.78 12.51 6.58 12.47L6.58 12.47L6.58 12.47Q6.49 11.27 6.02 10.87L6.02 10.87L6.02 10.87Q5.54 10.47 4.25 10.47ZM10.61 14.29L10.61 14.29L10.61 14.29Q10.61 15.21 10.94 15.99L10.94 15.99L10.94 15.99Q11.28 16.76 11.87 17.29L11.87 17.29L11.87 17.29Q13.11 18.42 15.06 18.42L15.06 18.42L15.06 18.42Q17.01 18.42 18.49 16.94L18.49 16.94L18.49 16.94Q18.66 16.78 18.78 16.78L18.78 16.78L18.78 16.78Q18.91 16.78 19.02 16.87L19.02 16.87L19.02 16.87Q19.13 16.97 19.13 17.10L19.13 17.10L19.13 17.10Q19.13 17.24 19.06 17.41L19.06 17.41L19.07 17.41L19.07 17.41Q18.55 18.31 17.35 18.91L17.35 18.91L17.35 18.91Q16.15 19.51 14.90 19.51L14.90 19.51L14.90 19.51Q13.64 19.51 12.61 19.19L12.61 19.19L12.61 19.19Q11.57 18.87 10.78 18.27L10.78 18.27L10.78 18.27Q9.98 17.68 9.51 16.75L9.51 16.75L9.51 16.75Q9.04 15.83 9.04 14.67L9.04 14.67L9.04 14.67Q9.04 13.51 9.48 12.55L9.48 12.55L9.48 12.55Q9.93 11.59 10.71 10.96L10.71 10.96L10.71 10.96Q12.30 9.66 14.79 9.66L14.79 9.66L14.79 9.66Q16.11 9.66 17.28 10.07L17.28 10.07L17.28 10.07Q17.88 10.28 18.26 10.67L18.26 10.67L18.26 10.67Q18.64 11.07 18.64 11.57L18.64 11.57L18.64 11.57Q18.64 12.08 18.33 12.33L18.33 12.33L18.33 12.33Q18.01 12.57 17.59 12.57L17.59 12.57L17.59 12.57Q17.17 12.57 16.97 12.50L16.97 12.50L16.97 12.50Q16.89 11.44 16.35 10.92L16.35 10.92L16.35 10.92Q15.81 10.40 14.72 10.40L14.72 10.40L14.72 10.40Q12.87 10.40 11.74 11.47L11.74 11.47L11.74 11.47Q10.61 12.55 10.61 14.29ZM21.23 19.32L21.23 19.32L21.23 19.32Q19.74 19.32 19.74 18.70L19.74 18.70L19.74 18.70Q19.74 18.46 20.20 18.40L20.20 18.40L20.20 18.40Q20.42 18.37 20.49 18.33L20.49 18.33L20.49 18.33Q20.76 18.22 20.76 17.85L20.76 17.85L20.76 11.18L20.76 11.18Q20.76 10.69 20.25 10.62L20.25 10.62L20.25 10.62Q20.15 10.61 20.07 10.60L20.07 10.60L20.07 10.60Q19.99 10.59 19.93 10.58L19.93 10.58L19.93 10.58Q19.88 10.57 19.86 10.55L19.86 10.55L19.86 10.55Q19.84 10.54 19.81 10.52L19.81 10.52L19.81 10.52Q19.78 10.49 19.76 10.46L19.76 10.46L19.76 10.46Q19.74 10.37 19.74 10.28L19.74 10.28L19.74 10.28Q19.74 10.19 19.77 10.10L19.77 10.10L19.77 10.10Q19.80 10.02 19.88 9.96L19.88 9.96L19.88 9.96Q19.95 9.90 20.03 9.86L20.03 9.86L20.03 9.86Q20.10 9.82 20.24 9.79L20.24 9.79L20.24 9.79Q20.39 9.77 20.49 9.75L20.49 9.75L20.49 9.75Q20.59 9.73 20.79 9.73L20.79 9.73L20.79 9.73Q21 9.72 21.12 9.72L21.12 9.72L21.12 9.72Q21.33 9.72 21.55 9.72L21.55 9.72L21.55 9.72Q21.77 9.72 21.91 9.72L21.91 9.72L21.91 9.72Q22.05 9.73 22.25 9.74L22.25 9.74L22.25 9.74Q22.45 9.75 22.58 9.78L22.58 9.78L22.58 9.78Q22.71 9.80 22.86 9.84L22.86 9.84L22.86 9.84Q23.00 9.89 23.08 9.95L23.08 9.95L23.08 9.95Q23.28 10.10 23.28 10.29L23.28 10.29L23.28 10.29Q23.28 10.49 23.15 10.54L23.15 10.54L23.15 10.54Q23.02 10.60 22.80 10.63L22.80 10.63L22.80 10.63Q22.59 10.65 22.52 10.68L22.52 10.68L22.52 10.68Q22.25 10.81 22.25 11.18L22.25 11.18L22.25 17.85L22.25 17.85Q22.25 18.15 22.41 18.28L22.41 18.28L22.41 18.28Q22.57 18.40 22.80 18.43L22.80 18.43L22.80 18.43Q23.03 18.45 23.10 18.47L23.10 18.47L23.10 18.47Q23.28 18.51 23.28 18.69L23.28 18.69L23.28 18.69Q23.28 18.87 23.22 18.98L23.22 18.98L23.22 18.98Q23.16 19.08 23.02 19.14L23.02 19.14L23.02 19.14Q22.87 19.21 22.74 19.25L22.74 19.25L22.74 19.25Q22.61 19.28 22.37 19.30L22.37 19.30L22.37 19.30Q22.00 19.32 21.23 19.32ZM28.38 10.89L28.38 10.89L28.38 10.89Q28.38 11.03 28.66 11.30L28.66 11.30L30.60 13.50L32.67 11.32L32.67 11.32Q32.85 11.11 32.85 10.95L32.85 10.95L32.85 10.95Q32.85 10.80 32.39 10.74L32.39 10.74L32.39 10.74Q31.92 10.68 31.89 10.44L31.89 10.44L31.89 10.44Q31.86 10.20 32.42 9.96L32.42 9.96L32.42 9.96Q32.98 9.72 34.28 9.72L34.28 9.72L34.28 9.72Q35.58 9.72 35.58 10.48L35.58 10.48L35.58 10.48Q35.58 10.75 35.01 10.77L35.01 10.77L35.01 10.77Q34.77 10.77 34.45 10.91L34.45 10.91L34.45 10.91Q34.13 11.05 33.89 11.32L33.89 11.32L31.19 14.16L34.26 17.53L34.26 17.53Q34.49 17.86 35.27 18.13L35.27 18.13L35.27 18.13Q35.98 18.38 35.98 18.73L35.98 18.73L35.98 18.73Q35.98 19.04 35.85 19.12L35.85 19.12L35.85 19.12Q35.71 19.21 35.62 19.24L35.62 19.24L35.62 19.24Q35.53 19.28 35.31 19.29L35.31 19.29L35.31 19.29Q34.58 19.35 33.82 19.31L33.82 19.31L33.82 19.31Q33.07 19.28 32.88 19.24L32.88 19.24L32.88 19.24Q32.69 19.20 32.49 19.14L32.49 19.14L32.49 19.14Q32.09 19.01 32.09 18.70L32.09 18.70L32.09 18.70Q32.09 18.52 32.20 18.41L32.20 18.41L32.20 18.41Q32.31 18.29 32.44 18.25L32.44 18.25L32.44 18.25Q32.56 18.21 32.66 18.16L32.66 18.16L32.66 18.16Q32.85 18.05 32.50 17.66L32.50 17.66L30.28 15.17L27.89 17.85L27.89 17.85Q27.57 18.20 27.80 18.32L27.80 18.32L27.80 18.32Q27.90 18.37 28.03 18.40L28.03 18.40L28.03 18.40Q28.38 18.50 28.38 18.73L28.38 18.73L28.38 18.73Q28.38 18.96 28.29 19.08L28.29 19.08L28.29 19.08Q28.19 19.20 27.88 19.25L27.88 19.25L27.88 19.25Q27.48 19.32 26.89 19.32L26.89 19.32L26.23 19.32L26.08 19.32L26.08 19.32Q25.42 19.32 25.09 19.18L25.09 19.18L25.09 19.18Q24.77 19.04 24.77 18.66L24.77 18.66L24.77 18.66Q24.77 18.43 25.20 18.39L25.20 18.39L25.20 18.39Q25.82 18.33 26.11 18.20L26.11 18.20L26.11 18.20Q26.40 18.07 26.61 17.85L26.61 17.85L29.73 14.57L26.76 11.40L26.76 11.40Q26.37 10.98 25.59 10.85L25.59 10.85L25.59 10.85Q24.88 10.73 24.88 10.48L24.88 10.48L24.88 10.48Q24.88 10.23 25.01 10.08L25.01 10.08L25.01 10.08Q25.31 9.72 26.68 9.72L26.68 9.72L26.68 9.72Q27.72 9.72 28.03 9.77L28.03 9.77L28.03 9.77Q28.35 9.82 28.57 9.87L28.57 9.87L28.57 9.87Q29.00 9.98 29.00 10.23L29.00 10.23L29.00 10.23Q29.00 10.44 28.85 10.59L28.85 10.59L28.85 10.59Q28.69 10.73 28.53 10.80L28.53 10.80L28.53 10.80Q28.38 10.88 28.38 10.89Z"></path></g><!----><!----></svg>