<svg data-v-423bf9ae="" xmlns="http://www.w3.org/2000/svg" viewBox="0 0 343 101" class="iconLeftSlogan"><!----><!----><!----><g data-v-423bf9ae="" id="345a2e8f-0bf3-427b-9c96-83f1952e5b42" fill="#000000" transform="matrix(6.066733864221661,0,0,6.066733864221661,124.0080578693357,-58.36197955636695)"><path d="M4.25 10.47L4.25 10.47L4.25 10.47Q3.41 10.47 2.94 10.68L2.94 10.68L2.94 10.68Q2.08 11.08 2.08 11.73L2.08 11.73L2.08 11.73Q2.08 12.08 2.28 12.28L2.28 12.28L2.28 12.28Q2.80 12.84 3.66 13.22L3.66 13.22L3.66 13.22Q4.17 13.45 5.14 13.80L5.14 13.80L5.14 13.80Q6.12 14.16 6.46 14.31L6.46 14.31L6.46 14.31Q6.80 14.47 7.22 14.74L7.22 14.74L7.22 14.74Q7.64 15.00 7.92 15.29L7.92 15.29L7.92 15.29Q8.57 15.98 8.57 16.87L8.57 16.87L8.57 16.87Q8.57 17.51 8.23 18.02L8.23 18.02L8.23 18.02Q7.88 18.53 7.31 18.84L7.31 18.84L7.31 18.84Q6.13 19.48 4.61 19.48L4.61 19.48L4.61 19.48Q2.58 19.48 1.29 18.77L1.29 18.77L1.29 18.77Q0.85 18.53 0.58 18.16L0.58 18.16L0.58 18.16Q0.31 17.78 0.31 17.35L0.31 17.35L0.31 17.35Q0.31 16.93 0.57 16.68L0.57 16.68L0.57 16.68Q0.83 16.43 1.31 16.43L1.31 16.43L1.31 16.43Q1.79 16.43 2.06 16.77L2.06 16.77L2.06 16.77Q2.33 17.10 2.33 17.64L2.33 17.64L2.33 17.64Q2.33 17.86 2.29 18.10L2.29 18.10L2.29 18.10Q3.33 18.63 4.51 18.63L4.51 18.63L4.51 18.63Q5.56 18.63 6.30 18.32L6.30 18.32L6.30 18.32Q7.14 17.96 7.14 17.06L7.14 17.06L7.14 17.06Q7.14 16.13 5.26 15.41L5.26 15.41L5.26 15.41Q4.95 15.29 4.29 15.07L4.29 15.07L4.29 15.07Q2.95 14.60 2.28 14.25L2.28 14.25L2.28 14.25Q0.62 13.37 0.62 12.05L0.62 12.05L0.62 12.05Q0.62 11.43 0.95 10.94L0.95 10.94L0.95 10.94Q1.29 10.46 1.85 10.18L1.85 10.18L1.85 10.18Q2.98 9.62 4.50 9.62L4.50 9.62L4.50 9.62Q6.28 9.62 7.38 10.21L7.38 10.21L7.38 10.21Q7.77 10.42 8.01 10.76L8.01 10.76L8.01 10.76Q8.25 11.10 8.25 11.53L8.25 11.53L8.25 11.53Q8.25 11.96 7.95 12.23L7.95 12.23L7.95 12.23Q7.66 12.51 7.22 12.51L7.22 12.51L7.22 12.51Q6.78 12.51 6.58 12.47L6.58 12.47L6.58 12.47Q6.49 11.27 6.02 10.87L6.02 10.87L6.02 10.87Q5.54 10.47 4.25 10.47ZM10.61 14.29L10.61 14.29L10.61 14.29Q10.61 15.21 10.94 15.99L10.94 15.99L10.94 15.99Q11.28 16.76 11.87 17.29L11.87 17.29L11.87 17.29Q13.11 18.42 15.06 18.42L15.06 18.42L15.06 18.42Q17.01 18.42 18.49 16.94L18.49 16.94L18.49 16.94Q18.66 16.78 18.78 16.78L18.78 16.78L18.78 16.78Q18.91 16.78 19.02 16.87L19.02 16.87L19.02 16.87Q19.13 16.97 19.13 17.10L19.13 17.10L19.13 17.10Q19.13 17.24 19.06 17.41L19.06 17.41L19.07 17.41L19.07 17.41Q18.55 18.31 17.35 18.91L17.35 18.91L17.35 18.91Q16.15 19.51 14.90 19.51L14.90 19.51L14.90 19.51Q13.64 19.51 12.61 19.19L12.61 19.19L12.61 19.19Q11.57 18.87 10.78 18.27L10.78 18.27L10.78 18.27Q9.98 17.68 9.51 16.75L9.51 16.75L9.51 16.75Q9.04 15.83 9.04 14.67L9.04 14.67L9.04 14.67Q9.04 13.51 9.48 12.55L9.48 12.55L9.48 12.55Q9.93 11.59 10.71 10.96L10.71 10.96L10.71 10.96Q12.30 9.66 14.79 9.66L14.79 9.66L14.79 9.66Q16.11 9.66 17.28 10.07L17.28 10.07L17.28 10.07Q17.88 10.28 18.26 10.67L18.26 10.67L18.26 10.67Q18.64 11.07 18.64 11.57L18.64 11.57L18.64 11.57Q18.64 12.08 18.33 12.33L18.33 12.33L18.33 12.33Q18.01 12.57 17.59 12.57L17.59 12.57L17.59 12.57Q17.17 12.57 16.97 12.50L16.97 12.50L16.97 12.50Q16.89 11.44 16.35 10.92L16.35 10.92L16.35 10.92Q15.81 10.40 14.72 10.40L14.72 10.40L14.72 10.40Q12.87 10.40 11.74 11.47L11.74 11.47L11.74 11.47Q10.61 12.55 10.61 14.29ZM21.23 19.32L21.23 19.32L21.23 19.32Q19.74 19.32 19.74 18.70L19.74 18.70L19.74 18.70Q19.74 18.46 20.20 18.40L20.20 18.40L20.20 18.40Q20.42 18.37 20.49 18.33L20.49 18.33L20.49 18.33Q20.76 18.22 20.76 17.85L20.76 17.85L20.76 11.18L20.76 11.18Q20.76 10.69 20.25 10.62L20.25 10.62L20.25 10.62Q20.15 10.61 20.07 10.60L20.07 10.60L20.07 10.60Q19.99 10.59 19.93 10.58L19.93 10.58L19.93 10.58Q19.88 10.57 19.86 10.55L19.86 10.55L19.86 10.55Q19.84 10.54 19.81 10.52L19.81 10.52L19.81 10.52Q19.78 10.49 19.76 10.46L19.76 10.46L19.76 10.46Q19.74 10.37 19.74 10.28L19.74 10.28L19.74 10.28Q19.74 10.19 19.77 10.10L19.77 10.10L19.77 10.10Q19.80 10.02 19.88 9.96L19.88 9.96L19.88 9.96Q19.95 9.90 20.03 9.86L20.03 9.86L20.03 9.86Q20.10 9.82 20.24 9.79L20.24 9.79L20.24 9.79Q20.39 9.77 20.49 9.75L20.49 9.75L20.49 9.75Q20.59 9.73 20.79 9.73L20.79 9.73L20.79 9.73Q21 9.72 21.12 9.72L21.12 9.72L21.12 9.72Q21.33 9.72 21.55 9.72L21.55 9.72L21.55 9.72Q21.77 9.72 21.91 9.72L21.91 9.72L21.91 9.72Q22.05 9.73 22.25 9.74L22.25 9.74L22.25 9.74Q22.45 9.75 22.58 9.78L22.58 9.78L22.58 9.78Q22.71 9.80 22.86 9.84L22.86 9.84L22.86 9.84Q23.00 9.89 23.08 9.95L23.08 9.95L23.08 9.95Q23.28 10.10 23.28 10.29L23.28 10.29L23.28 10.29Q23.28 10.49 23.15 10.54L23.15 10.54L23.15 10.54Q23.02 10.60 22.80 10.63L22.80 10.63L22.80 10.63Q22.59 10.65 22.52 10.68L22.52 10.68L22.52 10.68Q22.25 10.81 22.25 11.18L22.25 11.18L22.25 17.85L22.25 17.85Q22.25 18.15 22.41 18.28L22.41 18.28L22.41 18.28Q22.57 18.40 22.80 18.43L22.80 18.43L22.80 18.43Q23.03 18.45 23.10 18.47L23.10 18.47L23.10 18.47Q23.28 18.51 23.28 18.69L23.28 18.69L23.28 18.69Q23.28 18.87 23.22 18.98L23.22 18.98L23.22 18.98Q23.16 19.08 23.02 19.14L23.02 19.14L23.02 19.14Q22.87 19.21 22.74 19.25L22.74 19.25L22.74 19.25Q22.61 19.28 22.37 19.30L22.37 19.30L22.37 19.30Q22.00 19.32 21.23 19.32ZM28.38 10.89L28.38 10.89L28.38 10.89Q28.38 11.03 28.66 11.30L28.66 11.30L30.60 13.50L32.67 11.32L32.67 11.32Q32.85 11.11 32.85 10.95L32.85 10.95L32.85 10.95Q32.85 10.80 32.39 10.74L32.39 10.74L32.39 10.74Q31.92 10.68 31.89 10.44L31.89 10.44L31.89 10.44Q31.86 10.20 32.42 9.96L32.42 9.96L32.42 9.96Q32.98 9.72 34.28 9.72L34.28 9.72L34.28 9.72Q35.58 9.72 35.58 10.48L35.58 10.48L35.58 10.48Q35.58 10.75 35.01 10.77L35.01 10.77L35.01 10.77Q34.77 10.77 34.45 10.91L34.45 10.91L34.45 10.91Q34.13 11.05 33.89 11.32L33.89 11.32L31.19 14.16L34.26 17.53L34.26 17.53Q34.49 17.86 35.27 18.13L35.27 18.13L35.27 18.13Q35.98 18.38 35.98 18.73L35.98 18.73L35.98 18.73Q35.98 19.04 35.85 19.12L35.85 19.12L35.85 19.12Q35.71 19.21 35.62 19.24L35.62 19.24L35.62 19.24Q35.53 19.28 35.31 19.29L35.31 19.29L35.31 19.29Q34.58 19.35 33.82 19.31L33.82 19.31L33.82 19.31Q33.07 19.28 32.88 19.24L32.88 19.24L32.88 19.24Q32.69 19.20 32.49 19.14L32.49 19.14L32.49 19.14Q32.09 19.01 32.09 18.70L32.09 18.70L32.09 18.70Q32.09 18.52 32.20 18.41L32.20 18.41L32.20 18.41Q32.31 18.29 32.44 18.25L32.44 18.25L32.44 18.25Q32.56 18.21 32.66 18.16L32.66 18.16L32.66 18.16Q32.85 18.05 32.50 17.66L32.50 17.66L30.28 15.17L27.89 17.85L27.89 17.85Q27.57 18.20 27.80 18.32L27.80 18.32L27.80 18.32Q27.90 18.37 28.03 18.40L28.03 18.40L28.03 18.40Q28.38 18.50 28.38 18.73L28.38 18.73L28.38 18.73Q28.38 18.96 28.29 19.08L28.29 19.08L28.29 19.08Q28.19 19.20 27.88 19.25L27.88 19.25L27.88 19.25Q27.48 19.32 26.89 19.32L26.89 19.32L26.23 19.32L26.08 19.32L26.08 19.32Q25.42 19.32 25.09 19.18L25.09 19.18L25.09 19.18Q24.77 19.04 24.77 18.66L24.77 18.66L24.77 18.66Q24.77 18.43 25.20 18.39L25.20 18.39L25.20 18.39Q25.82 18.33 26.11 18.20L26.11 18.20L26.11 18.20Q26.40 18.07 26.61 17.85L26.61 17.85L29.73 14.57L26.76 11.40L26.76 11.40Q26.37 10.98 25.59 10.85L25.59 10.85L25.59 10.85Q24.88 10.73 24.88 10.48L24.88 10.48L24.88 10.48Q24.88 10.23 25.01 10.08L25.01 10.08L25.01 10.08Q25.31 9.72 26.68 9.72L26.68 9.72L26.68 9.72Q27.72 9.72 28.03 9.77L28.03 9.77L28.03 9.77Q28.35 9.82 28.57 9.87L28.57 9.87L28.57 9.87Q29.00 9.98 29.00 10.23L29.00 10.23L29.00 10.23Q29.00 10.44 28.85 10.59L28.85 10.59L28.85 10.59Q28.69 10.73 28.53 10.80L28.53 10.80L28.53 10.80Q28.38 10.88 28.38 10.89Z"></path></g><defs data-v-423bf9ae=""><linearGradient data-v-423bf9ae="" gradientTransform="rotate(25)" id="1b19b901-5229-4dec-a8c1-f531a49aa0e3" x1="0%" y1="0%" x2="100%" y2="0%"><stop data-v-423bf9ae="" offset="0%" style="stop-color: rgb(180, 55, 61); stop-opacity: 1;"></stop><stop data-v-423bf9ae="" offset="100%" style="stop-color: rgb(178, 58, 203); stop-opacity: 1;"></stop></linearGradient></defs><g data-v-423bf9ae="" id="6afdcfa9-10cc-4579-85a6-bac63f8efe6b" transform="matrix(1.058712853325738,0,0,1.058712853325738,15.893193888434325,13.241851576134643)" stroke="none" fill="url(#1b19b901-5229-4dec-a8c1-f531a49aa0e3)"><path d="M7.59 83.683h-.001a21.715 21.715 0 0 1-15.46-6.405c-8.524-8.524-8.524-22.396 0-30.924a21.713 21.713 0 0 1 15.456-6.399c1.872 0 3.727.236 5.53.705l4.62-4.619-4.62-4.621a21.953 21.953 0 0 1-5.53.707 21.714 21.714 0 0 1-15.456-6.4c-8.526-8.526-8.526-22.399 0-30.924a21.727 21.727 0 0 1 15.463-6.404c5.84 0 11.331 2.274 15.461 6.404a21.816 21.816 0 0 1 5.694 20.987l4.618 4.62L49.884 3.891c5.558-5.558 12.947-8.619 20.809-8.619A29.64 29.64 0 0 1 83.57-1.772l2.181 1.06-57.005 57.003a21.808 21.808 0 0 1-5.693 20.986A21.726 21.726 0 0 1 7.59 83.683zm-.006-40.278a18.278 18.278 0 0 0-13.015 5.39c-7.179 7.181-7.179 18.862 0 26.042A18.294 18.294 0 0 0 7.59 80.231c4.917 0 9.542-1.916 13.022-5.394a18.379 18.379 0 0 0 4.548-18.533l-.312-.997L79.792.364a26.215 26.215 0 0 0-9.1-1.64c-6.938 0-13.462 2.703-18.368 7.608L33.365 25.29l-8.517-8.517.312-.997a18.382 18.382 0 0 0-4.548-18.534A18.298 18.298 0 0 0 7.591-8.151 18.295 18.295 0 0 0-5.431-2.758c-7.18 7.18-7.18 18.863 0 26.043a18.285 18.285 0 0 0 13.015 5.39c1.875 0 3.732-.282 5.518-.84l.997-.312 8.517 8.518-8.517 8.518-.997-.312a18.445 18.445 0 0 0-5.518-.842z"></path><path d="M70.693 76.029c-7.863 0-15.253-3.062-20.81-8.619L37.016 54.541l15.63-15.631L85.75 72.014l-2.181 1.059a29.623 29.623 0 0 1-12.876 2.956zM41.897 54.541L52.325 64.97c4.904 4.905 11.428 7.606 18.367 7.606h.001c3.099 0 6.201-.562 9.099-1.639L52.646 43.792 41.897 54.541zM16.814 1.042a12.957 12.957 0 0 0-9.222-3.82 12.955 12.955 0 0 0-9.224 3.82 12.964 12.964 0 0 0-3.821 9.223c0 3.484 1.356 6.76 3.821 9.224a12.951 12.951 0 0 0 9.22 3.819c3.484 0 6.76-1.357 9.224-3.82 5.085-5.088 5.087-13.363.002-18.446zm-2.44 16.003a9.53 9.53 0 0 1-6.783 2.81 9.526 9.526 0 0 1-6.779-2.808 9.528 9.528 0 0 1-2.81-6.783c0-2.562.998-4.97 2.81-6.782A9.53 9.53 0 0 1 7.595.674c2.561 0 4.969.998 6.781 2.808 3.738 3.739 3.737 9.824-.002 13.563zM32.415 30.988a5.057 5.057 0 0 0-5.05 5.052 5.057 5.057 0 0 0 5.05 5.051 5.056 5.056 0 0 0 5.05-5.051 5.057 5.057 0 0 0-5.05-5.052zm0 6.651a1.6 1.6 0 0 1 0-3.2 1.6 1.6 0 0 1 0 3.2zM16.813 52.595a12.961 12.961 0 0 0-9.225-3.821 12.95 12.95 0 0 0-9.219 3.819c-5.085 5.086-5.085 13.359 0 18.446a12.957 12.957 0 0 0 9.223 3.82c3.483 0 6.759-1.357 9.223-3.82 5.082-5.086 5.081-13.359-.002-18.444zm-2.44 16.003a9.529 9.529 0 0 1-6.782 2.809 9.527 9.527 0 0 1-6.782-2.809c-3.739-3.739-3.739-9.824 0-13.564a9.517 9.517 0 0 1 6.778-2.808c2.562 0 4.972.997 6.784 2.81 3.74 3.739 3.74 9.823.002 13.562z"></path></g><!----><g data-v-423bf9ae="" id="41c88b5b-fa5e-4d93-80fa-55fb2f3c2042" fill="#000000" transform="matrix(0.6000288203754528,0,0,0.6000288203754528,125.70273749216709,56.63383953200501)"><path d="M1.15 6.34L0.31 6.15L0.36 5.89L3.05 5.89L3.03 6.11L1.90 6.32L3.86 13.18L5.90 6.18L6.21 6.14L8.15 13.18L10.36 6.36L9.08 6.13L9.12 5.89L11.74 5.89L11.72 6.14L10.91 6.34L8.22 14.49L7.77 14.57L5.94 7.63L3.92 14.49L3.44 14.57L1.15 6.34ZM23.50 6.98L22.13 10.75L24.81 10.75L23.50 6.98ZM22.18 14.40L19.45 14.40L19.48 14.11L20.45 13.90L23.45 5.82L23.81 5.73L26.65 13.95L27.55 14.08L27.49 14.39L24.70 14.39L24.76 14.10L25.89 13.90L24.94 11.13L21.99 11.13L20.98 13.95L22.24 14.08L22.18 14.40ZM36.48 6.36L35.22 6.14L35.27 5.89L37.34 5.89L42.07 13.17L42.07 6.33L40.82 6.16L40.86 5.89L43.76 5.89L43.70 6.16L42.57 6.32L42.57 14.44L42.20 14.52L36.99 6.65L36.99 13.95L38.25 14.08L38.18 14.40L35.30 14.40L35.34 14.11L36.48 13.90L36.48 6.36ZM51.50 8.09L51.43 5.89L58.50 5.89L58.26 8.16L57.91 8.12L57.80 6.24L55.26 6.24L55.26 13.90L56.47 14.08L56.40 14.40L53.30 14.40L53.33 14.11L54.53 13.90L54.53 6.24L52.10 6.24L51.86 8.15L51.50 8.09ZM77.28 6.33L76.10 6.16L76.14 5.89L79.26 5.89L79.21 6.16L78.02 6.32L78.02 13.95L79.34 14.08L79.28 14.40L76.17 14.40L76.20 14.11L77.28 13.90L77.28 6.33ZM87.11 8.09L87.04 5.89L94.10 5.89L93.86 8.16L93.52 8.12L93.41 6.24L90.87 6.24L90.87 13.90L92.08 14.08L92.00 14.40L88.91 14.40L88.94 14.11L90.14 13.90L90.14 6.24L87.71 6.24L87.47 8.15L87.11 8.09ZM111.73 13.60L111.73 13.60L111.94 11.66L112.27 11.71L112.46 13.21L112.46 13.21Q112.68 13.64 113.21 13.89L113.21 13.89L113.21 13.89Q113.74 14.14 114.34 14.14L114.34 14.14L114.34 14.14Q115.03 14.14 115.51 13.74L115.51 13.74L115.51 13.74Q115.99 13.33 115.99 12.61L115.99 12.61L115.99 12.61Q115.99 12.20 115.77 11.83L115.77 11.83L115.77 11.83Q115.55 11.46 115.21 11.18L115.21 11.18L115.21 11.18Q114.86 10.90 114.44 10.63L114.44 10.63L114.44 10.63Q114.02 10.36 113.61 10.07L113.61 10.07L113.61 10.07Q113.19 9.79 112.84 9.48L112.84 9.48L112.84 9.48Q112.50 9.17 112.28 8.75L112.28 8.75L112.28 8.75Q112.07 8.33 112.07 7.84L112.07 7.84L112.07 7.84Q112.07 6.88 112.76 6.29L112.76 6.29L112.76 6.29Q113.46 5.71 114.34 5.71L114.34 5.71L114.34 5.71Q114.93 5.71 115.47 5.90L115.47 5.90L115.47 5.90Q116.01 6.09 116.33 6.46L116.33 6.46L116.11 8.58L115.79 8.53L115.61 6.87L115.61 6.87Q115.42 6.54 115.01 6.32L115.01 6.32L115.01 6.32Q114.59 6.10 114.16 6.10L114.16 6.10L114.16 6.10Q113.57 6.10 113.15 6.48L113.15 6.48L113.15 6.48Q112.74 6.87 112.74 7.52L112.74 7.52L112.74 7.52Q112.74 7.96 112.96 8.35L112.96 8.35L112.96 8.35Q113.18 8.74 113.53 9.03L113.53 9.03L113.53 9.03Q113.89 9.32 114.31 9.61L114.31 9.61L114.31 9.61Q114.73 9.89 115.16 10.17L115.16 10.17L115.16 10.17Q115.59 10.45 115.94 10.75L115.94 10.75L115.94 10.75Q116.29 11.05 116.52 11.45L116.52 11.45L116.52 11.45Q116.74 11.85 116.74 12.29L116.74 12.29L116.74 12.29Q116.74 13.28 115.99 13.93L115.99 13.93L115.99 13.93Q115.23 14.57 113.99 14.57L113.99 14.57L113.99 14.57Q113.28 14.57 112.68 14.30L112.68 14.30L112.68 14.30Q112.08 14.03 111.73 13.60ZM125.68 6.33L124.45 6.16L124.47 5.89L127.59 5.89L127.55 6.16L126.40 6.32L126.40 9.95L131.30 9.95L131.30 6.33L130.05 6.16L130.09 5.89L133.21 5.89L133.15 6.16L132.01 6.32L132.01 13.95L133.26 14.08L133.21 14.40L130.12 14.40L130.17 14.11L131.30 13.90L131.30 10.36L126.40 10.36L126.40 13.95L127.67 14.08L127.59 14.40L124.50 14.40L124.54 14.11L125.68 13.90L125.68 6.33ZM141.75 9.75L141.75 9.75L141.75 9.75Q141.75 11.03 142.11 12.01L142.11 12.01L142.11 12.01Q142.47 13.00 143.19 13.57L143.19 13.57L143.19 13.57Q143.91 14.14 144.89 14.14L144.89 14.14L144.89 14.14Q145.46 14.14 145.95 13.92L145.95 13.92L145.95 13.92Q146.45 13.70 146.79 13.33L146.79 13.33L146.79 13.33Q147.14 12.96 147.38 12.49L147.38 12.49L147.38 12.49Q147.62 12.01 147.74 11.50L147.74 11.50L147.74 11.50Q147.85 10.99 147.85 10.48L147.85 10.48L147.85 10.48Q147.85 8.50 147.00 7.29L147.00 7.29L147.00 7.29Q146.15 6.07 144.70 6.07L144.70 6.07L144.70 6.07Q144.12 6.07 143.63 6.28L143.63 6.28L143.63 6.28Q143.14 6.49 142.80 6.85L142.80 6.85L142.80 6.85Q142.45 7.21 142.21 7.69L142.21 7.69L142.21 7.69Q141.98 8.16 141.86 8.69L141.86 8.69L141.86 8.69Q141.75 9.21 141.75 9.75ZM141.00 10.16L141.00 10.16L141.00 10.16Q141.00 8.16 142.10 6.92L142.10 6.92L142.10 6.92Q143.19 5.69 145.03 5.69L145.03 5.69L145.03 5.69Q146.17 5.69 146.98 6.27L146.98 6.27L146.98 6.27Q147.80 6.86 148.20 7.84L148.20 7.84L148.20 7.84Q148.59 8.83 148.59 10.11L148.59 10.11L148.59 10.11Q148.59 10.75 148.44 11.38L148.44 11.38L148.44 11.38Q148.29 12.00 147.97 12.58L147.97 12.58L147.97 12.58Q147.64 13.17 147.18 13.61L147.18 13.61L147.18 13.61Q146.72 14.05 146.04 14.32L146.04 14.32L146.04 14.32Q145.37 14.58 144.56 14.58L144.56 14.58L144.56 14.58Q143.51 14.58 142.68 13.98L142.68 13.98L142.68 13.98Q141.86 13.37 141.43 12.37L141.43 12.37L141.43 12.37Q141.00 11.37 141.00 10.16ZM158.14 6.18L158.14 10.11L159.69 10.11L159.69 10.11Q160.37 9.86 160.83 9.28L160.83 9.28L160.83 9.28Q161.29 8.70 161.29 8.02L161.29 8.02L161.29 8.02Q161.29 7.11 160.67 6.63L160.67 6.63L160.67 6.63Q160.05 6.15 158.96 6.15L158.96 6.15L158.14 6.18ZM159.51 14.40L156.32 14.40L156.37 14.11L157.43 13.90L157.43 6.51L156.34 6.37L156.40 6.13L156.40 6.13Q158.22 5.83 159.30 5.83L159.30 5.83L159.30 5.83Q160.07 5.83 160.68 6.05L160.68 6.05L160.68 6.05Q161.29 6.27 161.66 6.73L161.66 6.73L161.66 6.73Q162.04 7.19 162.04 7.83L162.04 7.83L162.04 7.83Q162.04 8.57 161.61 9.14L161.61 9.14L161.61 9.14Q161.18 9.72 160.15 10.23L160.15 10.23L160.15 10.23L161.47 12.19L161.47 12.19Q162.18 13.23 162.53 13.58L162.53 13.58L162.53 13.58Q162.87 13.92 163.26 14.05L163.26 14.05L163.58 14.16L163.54 14.42L163.54 14.42Q163.25 14.52 162.91 14.52L162.91 14.52L162.91 14.52Q162.62 14.52 162.37 14.40L162.37 14.40L162.37 14.40Q162.11 14.28 161.87 14.01L161.87 14.01L161.87 14.01Q161.63 13.75 161.44 13.48L161.44 13.48L161.44 13.48Q161.26 13.22 160.99 12.77L160.99 12.77L159.60 10.49L158.14 10.49L158.14 13.95L159.58 14.08L159.51 14.40ZM171.34 8.09L171.27 5.89L178.33 5.89L178.09 8.16L177.75 8.12L177.63 6.24L175.10 6.24L175.10 13.90L176.31 14.08L176.23 14.40L173.13 14.40L173.17 14.11L174.36 13.90L174.36 6.24L171.93 6.24L171.69 8.15L171.34 8.09ZM187.30 13.95L187.30 13.95L187.30 13.95Q187.30 13.67 187.41 13.49L187.41 13.49L187.41 13.49Q187.52 13.31 187.69 13.31L187.69 13.31L187.69 13.31Q187.88 13.31 187.99 13.49L187.99 13.49L187.99 13.49Q188.10 13.67 188.10 13.95L188.10 13.95L188.10 13.95Q188.10 14.62 187.69 14.62L187.69 14.62L187.69 14.62Q187.30 14.62 187.30 13.95ZM186.00 6.43L186.00 6.43L186.00 6.43Q186.00 6.11 186.44 5.86L186.44 5.86L186.44 5.86Q186.88 5.61 187.36 5.61L187.36 5.61L187.36 5.61Q188.25 5.61 188.88 6.37L188.88 6.37L188.88 6.37Q189.52 7.13 189.52 8.07L189.52 8.07L189.52 8.07Q189.52 8.39 189.40 8.65L189.40 8.65L189.40 8.65Q189.29 8.92 189.10 9.11L189.10 9.11L189.10 9.11Q188.91 9.30 188.69 9.47L188.69 9.47L188.69 9.47Q188.46 9.64 188.23 9.79L188.23 9.79L188.23 9.79Q188.01 9.95 187.82 10.10L187.82 10.10L187.82 10.10Q187.63 10.26 187.52 10.47L187.52 10.47L187.52 10.47Q187.40 10.68 187.40 10.92L187.40 10.92L187.40 10.92Q187.40 11.37 187.71 11.95L187.71 11.95L187.45 12.06L187.45 12.06Q187.20 11.82 187.03 11.45L187.03 11.45L187.03 11.45Q186.86 11.07 186.86 10.68L186.86 10.68L186.86 10.68Q186.86 10.27 187.08 9.93L187.08 9.93L187.08 9.93Q187.30 9.59 187.61 9.36L187.61 9.36L187.61 9.36Q187.93 9.13 188.24 8.92L188.24 8.92L188.24 8.92Q188.55 8.71 188.77 8.46L188.77 8.46L188.77 8.46Q188.99 8.21 188.99 7.93L188.99 7.93L188.99 7.93Q188.99 7.28 188.62 6.80L188.62 6.80L188.62 6.80Q188.25 6.32 187.61 6.32L187.61 6.32L187.61 6.32Q187.22 6.32 186.88 6.46L186.88 6.46L186.88 6.46Q186.53 6.60 186.31 6.84L186.31 6.84L186.31 6.84Q186.00 6.69 186.00 6.43ZM207.10 13.60L207.10 13.60L207.31 11.66L207.63 11.71L207.83 13.21L207.83 13.21Q208.05 13.64 208.58 13.89L208.58 13.89L208.58 13.89Q209.11 14.14 209.71 14.14L209.71 14.14L209.71 14.14Q210.40 14.14 210.88 13.74L210.88 13.74L210.88 13.74Q211.35 13.33 211.35 12.61L211.35 12.61L211.35 12.61Q211.35 12.20 211.14 11.83L211.14 11.83L211.14 11.83Q210.92 11.46 210.58 11.18L210.58 11.18L210.58 11.18Q210.23 10.90 209.81 10.63L209.81 10.63L209.81 10.63Q209.39 10.36 208.97 10.07L208.97 10.07L208.97 10.07Q208.56 9.79 208.21 9.48L208.21 9.48L208.21 9.48Q207.87 9.17 207.65 8.75L207.65 8.75L207.65 8.75Q207.44 8.33 207.44 7.84L207.44 7.84L207.44 7.84Q207.44 6.88 208.13 6.29L208.13 6.29L208.13 6.29Q208.82 5.71 209.71 5.71L209.71 5.71L209.71 5.71Q210.29 5.71 210.83 5.90L210.83 5.90L210.83 5.90Q211.37 6.09 211.70 6.46L211.70 6.46L211.48 8.58L211.16 8.53L210.98 6.87L210.98 6.87Q210.79 6.54 210.38 6.32L210.38 6.32L210.38 6.32Q209.96 6.10 209.53 6.10L209.53 6.10L209.53 6.10Q208.93 6.10 208.52 6.48L208.52 6.48L208.52 6.48Q208.11 6.87 208.11 7.52L208.11 7.52L208.11 7.52Q208.11 7.96 208.33 8.35L208.33 8.35L208.33 8.35Q208.55 8.74 208.90 9.03L208.90 9.03L208.90 9.03Q209.25 9.32 209.68 9.61L209.68 9.61L209.68 9.61Q210.10 9.89 210.53 10.17L210.53 10.17L210.53 10.17Q210.96 10.45 211.31 10.75L211.31 10.75L211.31 10.75Q211.66 11.05 211.88 11.45L211.88 11.45L211.88 11.45Q212.11 11.85 212.11 12.29L212.11 12.29L212.11 12.29Q212.11 13.28 211.35 13.93L211.35 13.93L211.35 13.93Q210.60 14.57 209.36 14.57L209.36 14.57L209.36 14.57Q208.65 14.57 208.04 14.30L208.04 14.30L208.04 14.30Q207.44 14.03 207.10 13.60ZM219.85 10.25L219.85 10.25L219.85 10.25Q219.85 9.73 219.96 9.21L219.96 9.21L219.96 9.21Q220.06 8.68 220.26 8.17L220.26 8.17L220.26 8.17Q220.47 7.66 220.79 7.22L220.79 7.22L220.79 7.22Q221.12 6.77 221.54 6.44L221.54 6.44L221.54 6.44Q221.95 6.10 222.51 5.90L222.51 5.90L222.51 5.90Q223.06 5.71 223.70 5.71L223.70 5.71L223.70 5.71Q225.11 5.71 226.02 6.39L226.02 6.39L225.81 8.70L225.49 8.64L225.29 6.87L225.29 6.87Q224.69 6.09 223.38 6.09L223.38 6.09L223.38 6.09Q222.23 6.09 221.40 7.19L221.40 7.19L221.40 7.19Q220.58 8.30 220.58 10.00L220.58 10.00L220.58 10.00Q220.58 11.92 221.38 12.97L221.38 12.97L221.38 12.97Q222.18 14.03 223.66 14.03L223.66 14.03L223.66 14.03Q224.39 14.03 225.08 13.65L225.08 13.65L225.08 13.65Q225.77 13.28 226.24 12.74L226.24 12.74L226.40 12.99L226.40 12.99Q226.23 13.25 225.94 13.51L225.94 13.51L225.94 13.51Q225.65 13.77 225.27 14.02L225.27 14.02L225.27 14.02Q224.88 14.27 224.38 14.42L224.38 14.42L224.38 14.42Q223.87 14.57 223.34 14.57L223.34 14.57L223.34 14.57Q221.77 14.57 220.81 13.40L220.81 13.40L220.81 13.40Q219.85 12.22 219.85 10.25ZM235.24 6.33L234.06 6.16L234.10 5.89L237.22 5.89L237.17 6.16L235.98 6.32L235.98 13.95L237.30 14.08L237.23 14.40L234.12 14.40L234.16 14.11L235.24 13.90L235.24 6.33ZM247.51 14.40L245.01 14.40L245.05 14.15L245.90 13.96L248.74 10.12L246.08 6.30L245.15 6.11L245.18 5.89L248.05 5.89L248.01 6.11L246.95 6.32L249.22 9.59L251.66 6.30L250.48 6.15L250.52 5.89L253.03 5.89L253.03 6.14L252.17 6.28L249.46 9.95L252.29 14.03L253.23 14.15L253.18 14.40L250.28 14.40L250.30 14.21L251.42 13.99L249.00 10.49L246.44 13.99L247.56 14.11L247.51 14.40ZM272.00 6.33L270.82 6.16L270.86 5.89L273.98 5.89L273.94 6.16L272.74 6.32L272.74 13.95L274.06 14.08L274.00 14.40L270.89 14.40L270.92 14.11L272.00 13.90L272.00 6.33ZM281.83 8.09L281.76 5.89L288.83 5.89L288.59 8.16L288.24 8.12L288.13 6.24L285.59 6.24L285.59 13.90L286.80 14.08L286.73 14.40L283.63 14.40L283.66 14.11L284.86 13.90L284.86 6.24L282.43 6.24L282.19 8.15L281.83 8.09Z"></path></g></svg>